{
  "asset": {
    "generator": "glTF-Transform v2.4.6",
    "version": "2.0"
  },
  "accessors": [
    {
      "type": "SCALAR",
      "componentType": 5123,
      "count": 36,
      "normalized": false,
      "byteOffset": 0,
      "bufferView": 0
    },
    {
      "type": "VEC3",
      "componentType": 5120,
      "count": 24,
      "normalized": true,
      "byteOffset": 0,
      "bufferView": 1
    },
    {
      "type": "VEC3",
      "componentType": 5122,
      "count": 24,
      "max": [
        32767,
        32767,
        32767
      ],
      "min": [
        -32767,
        -32767,
        -32767
      ],
      "normalized": true,
      "byteOffset": 0,
      "bufferView": 2
    }
  ],
  "bufferViews": [
    {
      "buffer": 1,
      "byteOffset": 0,
      "byteLength": 72,
      "target": 34963,
      "extensions": {
        "EXT_meshopt_compression": {
          "buffer": 0,
          "byteOffset": 0,
          "byteLength": 29,
          "mode": "TRIANGLES",
          "byteStride": 2,
          "count": 36
        }
      }
    },
    {
      "buffer": 1,
      "byteOffset": 72,
      "byteLength": 96,
      "target": 34962,
      "byteStride": 4,
      "extensions": {
        "EXT_meshopt_compression": {
          "buffer": 0,
          "byteOffset": 32,
          "byteLength": 62,
          "mode": "ATTRIBUTES",
          "filter": "OCTAHEDRAL",
          "byteStride": 4,
          "count": 24
        }
      }
    },
    {
      "buffer": 1,
      "byteOffset": 168,
      "byteLength": 192,
      "target": 34962,
      "byteStride": 8,
      "extensions": {
        "EXT_meshopt_compression": {
          "buffer": 0,
          "byteOffset": 96,
          "byteLength": 109,
          "mode": "ATTRIBUTES",
          "byteStride": 8,
          "count": 24
        }
      }
    }
  ],
  "buffers": [
    {
      "uri": "BoxMeshopt.bin",
      "byteLength": 208
    },
    {
      "byteLength": 360,
      "extensions": {
        "EXT_meshopt_compression": {
          "fallback": true
        }
      }
    }
  ],
  "materials": [
    {
      "name": "Red",
      "pbrMetallicRoughness": {
        "baseColorFactor": [
          0.800000011920929,
          0,
          0,
          1
        ],
        "metallicFactor": 0
      }
    }
  ],
  "meshes": [
    {
      "name": "Mesh",
      "primitives": [
        {
          "attributes": {
            "NORMAL": 1,
            "POSITION": 2
          },
          "mode": 4,
          "material": 0,
          "indices": 0
        }
      ]
    }
  ],
  "nodes": [
    {
      "rotation": [
        -0.7071067811865475,
        0,
        0,
        0.7071067811865476
      ],
      "children": [
        1
      ]
    },
    {
      "scale": [
        0.5,
        0.5,
        0.5
      ],
      "mesh": 0
    }
  ],
  "scenes": [
    {
      "nodes": [
        0
      ]
    }
  ],
  "scene": 0,
  "extensionsUsed": [
    "KHR_mesh_quantization",
    "EXT_meshopt_compression"
  ],
  "extensionsRequired": [
    "KHR_mesh_quantization",
    "EXT_meshopt_compression"
  ]
}