{
  "extensions" : {
    "EXT_structural_metadata" : {
      "schema" : {
        "id": "SimplePropertyTextureSchema",
        "classes" : {
          "buildingComponents" : {
            "name" : "Building properties",
            "properties" : {
              "insideTemperature" : {
                "name" : "Inside Temperature",
                "type" : "SCALAR",
                "componentType" : "UINT8"
              },
              "outsideTemperature" : {
                "name" : "Outside Temperature",
                "type" : "SCALAR",
                "componentType" : "UINT8"
              },
              "insulation" : {
                "name" : "Insulation Thickness",
                "type" : "SCALAR",
                "componentType" : "UINT8",
                "normalized" : true
              }
            }
          }
        }
      },
      "propertyTextures" : [ {
        "class" : "buildingComponents",
        "properties" : {
          "insideTemperature" : {
            "index" : 1,
            "texCoord" : 0,
            "channels" : [ 0 ]
          },
          "outsideTemperature" : {
            "index" : 1,
            "texCoord" : 0,
            "channels" : [ 1 ]
          },
          "insulation" : {
            "index" : 1,
            "texCoord" : 0,
            "channels" : [ 2 ]
          }
        }
      } ]
    }
  },
  "extensionsUsed" : [ "EXT_structural_metadata" ],
  "accessors" : [ {
    "bufferView" : 0,
    "byteOffset" : 0,
    "componentType" : 5123,
    "count" : 6,
    "type" : "SCALAR",
    "max" : [ 3 ],
    "min" : [ 0 ]
  }, {
    "bufferView" : 1,
    "byteOffset" : 0,
    "componentType" : 5126,
    "count" : 4,
    "type" : "VEC3",
    "max" : [ 1.0, 1.0, 0.0 ],
    "min" : [ 0.0, 0.0, 0.0 ]
  }, {
    "bufferView" : 2,
    "byteOffset" : 0,
    "componentType" : 5126,
    "count" : 4,
    "type" : "VEC3",
    "max" : [ 0.0, 0.0, 1.0 ],
    "min" : [ 0.0, 0.0, 1.0 ]
  }, {
    "bufferView" : 3,
    "byteOffset" : 0,
    "componentType" : 5126,
    "count" : 4,
    "type" : "VEC2",
    "max" : [ 1.0, 1.0 ],
    "min" : [ 0.0, 0.0 ]
  } ],
  "asset" : {
    "generator" : "JglTF from https://github.com/javagl/JglTF",
    "version" : "2.0"
  },
  "buffers" : [ {
    "uri" : "data:application/gltf-buffer;base64,",
    "byteLength" : 140
  } ],
  "bufferViews" : [ {
    "buffer" : 0,
    "byteOffset" : 0,
    "byteLength" : 12,
    "target" : 34963
  }, {
    "buffer" : 0,
    "byteOffset" : 12,
    "byteLength" : 48,
    "target" : 34962
  }, {
    "buffer" : 0,
    "byteOffset" : 60,
    "byteLength" : 48,
    "target" : 34962
  }, {
    "buffer" : 0,
    "byteOffset" : 108,
    "byteLength" : 32,
    "target" : 34962
  } ],
  "images" : [ {
    "uri" : "data:image/png;base64,",
    "mimeType" : "image/png"
  }, {
    "uri" : "data:image/png;base64,",
    "mimeType" : "image/png"
  } ],
  "materials" : [ {
    "pbrMetallicRoughness" : {
      "baseColorFactor" : [ 1.0, 1.0, 1.0, 1.0 ],
      "baseColorTexture" : {
        "index" : 0,
        "texCoord" : 0
      },
      "metallicFactor" : 0.0,
      "roughnessFactor" : 1.0
    },
    "alphaMode" : "OPAQUE",
    "doubleSided" : true
  } ],
  "meshes" : [ {
    "primitives" : [ {
      "extensions" : {
        "EXT_structural_metadata" : {
          "propertyTextures" : [ 0 ]
        }
      },
      "attributes" : {
        "POSITION" : 1,
        "NORMAL" : 2,
        "TEXCOORD_0" : 3
      },
      "indices" : 0,
      "material" : 0,
      "mode" : 4
    } ]
  } ],
  "nodes" : [ {
    "mesh" : 0
  } ],
  "samplers" : [ {
    "magFilter" : 9728,
    "minFilter" : 9728
  } ],
  "scene" : 0,
  "scenes" : [ {
    "nodes" : [ 0 ]
  } ],
  "textures" : [ {
    "sampler" : 0,
    "source" : 0
  }, {
    "sampler" : 0,
    "source" : 1
  } ]
}