{
    "accessors" : [
        {
            "bufferView" : 0,
            "componentType" : 5121.0,
            "count" : 36,
            "max" : [
                23.0
            ],
            "min" : [
                0.0
            ],
            "type" : "SCALAR"
        },
        {
            "bufferView" : 1,
            "componentType" : 5126.0,
            "count" : 24,
            "max" : [
                1.0000004768371582,
                1.0,
                1.0000005960464478
            ],
            "min" : [
                -1.0000003576278687,
                -1.0,
                -1.0000003576278687
            ],
            "type" : "VEC3"
        },
        {
            "bufferView" : 2,
            "componentType" : 5121.0,
            "count" : 36,
            "max" : [
                23.0
            ],
            "min" : [
                0.0
            ],
            "type" : "SCALAR"
        },
        {
            "bufferView" : 3,
            "componentType" : 5126.0,
            "count" : 24,
            "max" : [
                1.0000004768371582,
                1.0,
                1.0000005960464478
            ],
            "min" : [
                -1.0000003576278687,
                -1.0,
                -1.0000003576278687
            ],
            "type" : "VEC3"
        }
    ],
    "asset" : {
        "generator" : "Khronos Blender glTF 2.0 exporter",
        "version" : "2.0"
    },
    "bufferViews" : [
        {
            "buffer" : 0,
            "byteLength" : 36,
            "byteOffset" : 0,
            "target" : 34963.0
        },
        {
            "buffer" : 0,
            "byteLength" : 288,
            "byteOffset" : 36,
            "target" : 34962.0
        },
        {
            "buffer" : 0,
            "byteLength" : 36,
            "byteOffset" : 324,
            "target" : 34963.0
        },
        {
            "buffer" : 0,
            "byteLength" : 288,
            "byteOffset" : 360,
            "target" : 34962.0
        }
    ],
    "buffers" : [
        {
            "byteLength" : 648,
            "uri" : "data:application/octet-stream;base64,"
        }
    ],
    "extensions" : {},
    "materials" : [
        {
            "name" : "Material",
            "pbrMetallicRoughness" : {
                "baseColorFactor" : [
                    1.0,
                    0.0,
                    0.0,
                    1.0
                ],
                "metallicFactor" : 0.0
            }
        },
        {
            "name" : "Material.001",
            "pbrMetallicRoughness" : {
                "baseColorFactor" : [
                    0.0,
                    1.0,
                    1.0,
                    1.0
                ],
                "metallicFactor" : 0.0
            }
        }
    ],
    "meshes" : [
        {
            "extensions" : {},
            "name" : "CubeA",
            "primitives" : [
                {
                    "attributes" : {
                        "POSITION" : 1
                    },
                    "extensions" : {},
                    "extras" : {},
                    "indices" : 0,
                    "material" : 0
                }
            ]
        },
        {
            "extensions" : {},
            "name" : "CubeB",
            "primitives" : [
                {
                    "attributes" : {
                        "POSITION" : 3
                    },
                    "extensions" : {},
                    "extras" : {},
                    "indices" : 2,
                    "material" : 1
                }
            ]
        }
    ],
    "nodes" : [
        {
            "extensions" : {},
            "mesh" : 0,
            "name" : "CubeA",
            "translation" : [
                2.0,
                0.0,
                -0.0
            ]
        },
        {
            "extensions" : {},
            "mesh" : 1,
            "name" : "CubeB",
            "translation" : [
                -2.0,
                0.0,
                -0.0
            ]
        }
    ],
    "scene" : 0,
    "scenes" : [
        {
            "name" : "Scene",
            "nodes" : [
                0,
                1
            ]
        }
    ]
}
