{"accessors":[{"bufferView":0,"componentType":5121,"count":36,"max":[23],"min":[0],"type":"SCALAR","byteOffset":0},{"bufferView":1,"componentType":5126,"count":24,"max":[1.0000004768371582,1,1.0000005960464478],"min":[-1.0000003576278687,-1,-1.0000003576278687],"type":"VEC3","byteOffset":0},{"bufferView":2,"componentType":5121,"count":36,"max":[23],"min":[0],"type":"SCALAR","byteOffset":0},{"bufferView":3,"componentType":5126,"count":24,"max":[1.0000004768371582,1,1.0000005960464478],"min":[-1.0000003576278687,-1,-1.0000003576278687],"type":"VEC3","byteOffset":0}],"asset":{"generator":"Khronos Blender glTF 2.0 exporter","version":"2.0"},"bufferViews":[{"buffer":0,"byteLength":36,"byteOffset":0,"target":34963},{"buffer":1,"byteLength":288,"byteOffset":0},{"buffer":2,"byteLength":36,"byteOffset":0},{"buffer":2,"byteLength":288,"byteOffset":36}],"buffers":[{"name":"TwoCubes","byteLength":36,"uri":"resources.bin"},{"name":"CubeA","uri":"CubeA.bin","byteLength":288},{"name":"CubeB","uri":"CubeB.bin","byteLength":324}],"extensions":{},"materials":[{"name":"Material","pbrMetallicRoughness":{"baseColorFactor":[1,0,0,1],"metallicFactor":0,"roughnessFactor":1},"emissiveFactor":[0,0,0],"alphaMode":"OPAQUE","doubleSided":false},{"name":"Material.001","pbrMetallicRoughness":{"baseColorFactor":[0,1,1,1],"metallicFactor":0,"roughnessFactor":1},"emissiveFactor":[0,0,0],"alphaMode":"OPAQUE","doubleSided":false}],"meshes":[{"extensions":{},"name":"CubeA","primitives":[{"attributes":{"POSITION":1},"extensions":{},"extras":{},"indices":0,"material":0,"mode":4}]},{"extensions":{},"name":"CubeB","primitives":[{"attributes":{"POSITION":3},"extensions":{},"extras":{},"indices":2,"material":1,"mode":4}]}],"nodes":[{"extensions":{},"mesh":0,"name":"CubeA","translation":[2,0,0],"rotation":[0,0,0,1],"scale":[1,1,1]},{"extensions":{},"mesh":1,"name":"CubeB","translation":[-2,0,0],"rotation":[0,0,0,1],"scale":[1,1,1]}],"scene":0,"scenes":[{"name":"Scene","nodes":[0,1]}]}